<?xml version="1.0" encoding="utf-8"?>
<!-- Generator: Adobe Illustrator 19.0.1, SVG Export Plug-In . SVG Version: 6.00 Build 0)  -->
<svg version="1.1" id="Layer_1" xmlns="http://www.w3.org/2000/svg" xmlns:xlink="http://www.w3.org/1999/xlink" x="0px" y="0px"
	 viewBox="-131 15.5 457 457" style="enable-background:new -131 15.5 457 457;" xml:space="preserve">
<style type="text/css">
	.st0{fill:#FFFFFF;}
	.st1{fill:#1ED760;}
</style>
<g id="XMLID_1_">
	<g>
		<path class="st0" d="M194.8,323.1c6.5,4,8.6,12.5,4.6,19c-4,6.5-12.5,8.6-19,4.6c-52.1-31.8-117.7-39-195-21.4
			c-7.4,1.7-14.9-3-16.6-10.4c-1.7-7.4,2.9-14.9,10.4-16.6C63.7,279.1,136.2,287.4,194.8,323.1z"/>
		<path class="st0" d="M220.8,258c8.1,5,10.7,15.7,5.7,23.8c-5,8.1-15.7,10.7-23.8,5.7C143,250.8,52.1,240.1-18.5,261.6
			c-9.2,2.8-18.8-2.4-21.6-11.5c-2.8-9.2,2.4-18.8,11.5-21.6C52,204,152.3,215.8,220.8,258z"/>
		<path class="st0" d="M250,183.1c9.9,5.9,13.1,18.6,7.3,28.5c-5.8,9.9-18.6,13.1-28.4,7.3h0c-71.6-42.5-189.6-46.4-257.9-25.7
			c-11,3.3-22.6-2.9-25.9-13.8c-3.3-11,2.9-22.6,13.8-25.9C37.3,129.6,167.7,134.2,250,183.1z"/>
		<path class="st1" d="M97.5,22c122.6,0,222,99.4,222,222c0,122.6-99.4,222-222,222c-122.6,0-222-99.4-222-222
			C-124.5,121.4-25.1,22,97.5,22L97.5,22z M257.3,211.5c5.9-9.9,2.6-22.6-7.3-28.5c-82.4-48.9-212.7-53.5-291.1-29.7
			c-11,3.3-17.2,14.9-13.8,25.9c3.3,11,14.9,17.2,25.9,13.8c68.3-20.7,186.4-16.8,257.9,25.7h0C238.7,224.6,251.5,221.4,257.3,211.5
			z M226.5,281.7c5-8.1,2.4-18.8-5.7-23.8C152.3,215.8,52,204-28.6,228.4c-9.1,2.8-14.3,12.4-11.5,21.6c2.8,9.1,12.4,14.3,21.6,11.5
			c70.6-21.4,161.5-10.8,221.2,25.9C210.8,292.5,221.5,289.9,226.5,281.7z M199.3,342.2c4-6.5,1.9-15-4.6-19
			c-58.5-35.8-131.1-44.1-215.6-24.8c-7.5,1.7-12.1,9.1-10.4,16.6c1.7,7.5,9.1,12.1,16.6,10.4c77.3-17.7,142.9-10.4,195,21.4
			C186.8,350.8,195.4,348.7,199.3,342.2z"/>
	</g>
	<g>
	</g>
</g>
</svg>
